#!OML:ASF Y:\EmotionMaleHayes\Project 1\Capture day 1\Session 1\Male1.ASF
:FULLY-SPECIFIED
:DEGREES
1
root -28.3246 17.1103 1.25353 45.5888 84.0787 45.6819
lowerback 5.28423 1.54365 -5.1725
upperback 0.697329 1.76416 -0.614765
thorax -2.37989 0.93221 2.13603
lowerneck -21.8487 2.22486 2.47996
upperneck 20.2533 2.80658 -1.90215
head 10.1302 1.28147 -0.65879
rclavicle -1.93194e-015 1.88845e-014
rhumerus -31.3368 9.19912 -92.0775
rradius 30.104
rwrist 4.28077
rhand -11.1375 -30.9938
rfingers 7.12502
rthumb 14.888 -60.4388
lclavicle -1.93194e-015 1.88845e-014
lhumerus -30.7187 -15.3329 95.4066
lradius 24.9596
lwrist -10.6066
lhand -13.0381 -26.2639
lfingers 7.12502
lthumb 13.0565 3.30749
rfemur 10.8105 -4.60955 8.11388
rtibia 2.88518
rfoot -16.1473 -3.52109
rtoes 8.82869
lfemur 13.0592 1.50505 -19.3803
ltibia -2.72527
lfoot -11.7188 10.3706
ltoes -5.64755
2
root -28.3231 17.1107 1.25057 45.7194 84.0438 45.7911
lowerback 5.22553 1.5334 -5.2306
upperback 0.723667 1.75237 -0.598773
thorax -2.32111 0.925193 2.18787
lowerneck -21.8404 2.2511 2.45301
upperneck 20.178 2.84939 -1.90271
head 10.1022 1.29866 -0.648359
rclavicle -3.34207e-015 9.44227e-015
rhumerus -31.2991 9.24182 -92.1126
rradius 29.7568
rwrist 5.1695
rhand -11.6157 -30.4506
rfingers 7.12502
rthumb 14.4273 -59.9291
lclavicle -3.34207e-015 9.44227e-015
lhumerus -30.9608 -15.7763 95.8046
lradius 24.8965
lwrist -11.5586
lhand -15.2601 -26.3594
lfingers 7.12502
lthumb 10.9139 3.33694
rfemur 10.7731 -4.72897 8.02244
rtibia 2.9082
rfoot -16.1206 -3.38098
rtoes 8.30988
lfemur 13.1248 1.07946 -19.6255
ltibia -2.8736
lfoot -11.6979 10.8364
ltoes -6.35113
3
root -28.3229 17.1116 1.25023 46.0416 83.9908 46.0932
lowerback 5.17753 1.52541 -5.35117
upperback 0.742703 1.73925 -0.586227
thorax -2.27747 0.918496 2.27075
lowerneck -21.8282 2.29374 2.53002
upperneck 20.1312 2.9101 -2.01667
head 10.0879 1.31866 -0.692428
rclavicle 8.26199e-015 -1.76918e-014
rhumerus -31.199 9.03535 -92.0112
rradius 29.4915
rwrist 5.52119
rhand -11.1542 -30.5528
rfingers 7.12502
rthumb 14.8719 -59.9991
lclavicle 8.26199e-015 -1.76918e-014
lhumerus -30.9985 -15.7723 95.9199
lradius 24.9133
lwrist -11.7426
lhand -15.8104 -26.1493
lfingers 7.12502
lthumb 10.3831 3.57435
rfemur 10.7382 -4.76205 7.93668
rtibia 2.94224
rfoot -16.0909 -3.3343
rtoes 7.91128
lfemur 13.1468 0.845942 -19.8088
ltibia -2.97652
lfoot -11.597 11.0841
ltoes -6.87145
4
root -28.3231 17.1133 1.25071 46.3637 83.967 46.4312
lowerback 5.19258 1.51827 -5.45213
upperback 0.763376 1.72457 -0.56615
thorax -2.26689 0.911586 2.349
lowerneck -21.8626 2.34176 2.60014
upperneck 20.1317 2.98079 -2.13043
head 10.0992 1.34241 -0.733332
rclavicle 2.2736e-015 -2.24627e-014
rhumerus -31.2008 9.02517 -91.9623
rradius 29.3718
rwrist 5.53306
rhand -10.8915 -30.5628
rfingers 7.12502
rthumb 15.125 -59.9901
lclavicle 2.2736e-015 -2.24627e-014
lhumerus -31.0164 -15.7703 96.0331
lradius 24.927
lwrist -11.7749
lhand -14.2042 -26.492
lfingers 7.12502
lthumb 11.9322 3.1479
rfemur 10.753 -4.76797 7.88715
rtibia 2.97592
rfoot -16.0734 -3.40235
rtoes 7.31904
lfemur 13.1289 0.907428 -19.8255
ltibia -2.95178
lfoot -11.5596 11.0531
ltoes -7.1379
5
root -28.322 17.1139 1.24934 47.6257 84.0092 47.7039
lowerback 5.23722 1.47305 -5.50724
upperback 0.748839 1.65777 -0.571637
thorax -2.30284 0.87995 2.37796
lowerneck -21.8781 2.37432 2.65083
upperneck 20.1659 3.03249 -2.21933
head 10.1182 1.35935 -0.765174
rclavicle -5.30507e-015 2.52457e-014
rhumerus -31.3773 9.1784 -92.0181
rradius 29.467
rwrist 5.39314
rhand -10.8261 -30.6255
rfingers 7.12502
rthumb 15.1881 -60.0481
lclavicle -5.30507e-015 2.52457e-014
lhumerus -31.1296 -15.7912 96.1772
lradius 25.0103
lwrist -11.5205
lhand -13.3993 -26.5562
lfingers 7.12502
lthumb 12.7083 3.03716
rfemur 10.8111 -4.84164 7.80247
rtibia 2.95139
rfoot -16.0618 -3.55711
rtoes 6.12934
lfemur 13.072 0.867969 -19.88
ltibia -2.85037
lfoot -11.6381 10.984
ltoes -6.65742
6
root -28.3204 17.1137 1.24703 48.4448 84.045 48.5095
lowerback 5.25726 1.45437 -5.53173
upperback 0.720644 1.62905 -0.561878
thorax -2.34184 0.867227 2.40305
lowerneck -21.9072 2.39089 2.67344
upperneck 20.2362 3.0759 -2.32105
head 10.1522 1.36871 -0.79805
rclavicle -8.46077e-015 1.49089e-014
rhumerus -31.5887 9.22106 -91.9995
rradius 29.9782
rwrist 4.4499
rhand -10.2288 -31.5814
rfingers 7.12502
rthumb 15.7633 -60.9595
lclavicle -8.46077e-015 1.49089e-014
lhumerus -31.3122 -15.9771 96.4367
lradius 25.2326
lwrist -10.9293
lhand -13.5492 -26.0106
lfingers 7.12502
lthumb 12.5638 3.59168
rfemur 10.829 -4.91916 7.74646
rtibia 2.943
rfoot -16.078 -3.55841
rtoes 5.82667
lfemur 13.032 0.832593 -19.9212
ltibia -2.79915
lfoot -11.6651 10.8726
ltoes -6.05935
7
root -28.3193 17.1149 1.24578 48.9787 83.9832 49.087
lowerback 5.30111 1.47758 -5.64222
upperback 0.729898 1.65137 -0.565234
thorax -2.36166 0.879818 2.45873
lowerneck -21.9195 2.38699 2.66177
upperneck 20.2609 3.08848 -2.37333
head 10.1644 1.36721 -0.812642
rclavicle -2.23136e-014 1.37161e-014
rhumerus -31.682 9.06217 -91.9425
rradius 29.8296
rwrist 4.93266
rhand -10.557 -31.2497
rfingers 7.12502
rthumb 15.4472 -60.6525
lclavicle -2.23136e-014 1.37161e-014
lhumerus -31.0402 -15.2821 96.1226
lradius 25.5961
lwrist -8.53148
lhand -10.2083 -25.2518
lfingers 7.12502
lthumb 15.7831 4.12478
rfemur 10.8781 -4.99154 7.61013
rtibia 2.93168
rfoot -16.0313 -3.45675
rtoes 5.92563
lfemur 13.0818 0.851115 -20.0299
ltibia -2.7888
lfoot -11.6377 10.8048
ltoes -6.28058
8
root -28.319 17.1127 1.24422 49.593 83.9656 49.6549
lowerback 5.2163 1.46754 -5.68494
upperback 0.763651 1.64279 -0.584125
thorax -2.27909 0.873373 2.4663
lowerneck -22.0202 2.39571 2.67218
upperneck 20.3059 3.10535 -2.41286
head 10.2003 1.36977 -0.825046
rclavicle -4.09993e-016 -9.34288e-015
rhumerus -31.5995 8.84716 -91.904
rradius 29.4908
rwrist 5.6738
rhand -10.9181 -30.7338
rfingers 7.12502
rthumb 15.0994 -60.1631
lclavicle -4.09993e-016 -9.34288e-015
lhumerus -30.9248 -15.198 96.0692
lradius 25.7821
lwrist -7.47661
lhand -7.1242 -25.3426
lfingers 7.12502
lthumb 18.7514 3.77364
rfemur 10.8364 -5.00527 7.52687
rtibia 2.82618
rfoot -15.998 -3.44278
rtoes 6.39843
lfemur 13.0267 0.730806 -20.136
ltibia -2.77965
lfoot -11.6733 10.8819
ltoes -6.37881
9
root -28.3189 17.1129 1.24331 49.4855 83.9851 49.5447
lowerback 5.31842 1.46204 -5.65464
upperback 0.721331 1.62839 -0.568024
thorax -2.37853 0.869057 2.46406
lowerneck -22.0847 2.4073 2.60575
upperneck 20.3721 3.14057 -2.39664
head 10.2355 1.38212 -0.802438
rclavicle -5.77718e-015 1.59028e-014
rhumerus -31.7372 8.83882 -91.9131
rradius 29.5055
rwrist 5.80166
rhand -10.8857 -30.6191
rfingers 7.12502
rthumb 15.1306 -60.046
lclavicle -5.77718e-015 1.59028e-014
lhumerus -31.0406 -15.1349 96.1587
lradius 25.8907
lwrist -7.38739
lhand -7.41861 -25.3138
lfingers 7.12502
lthumb 18.4682 3.82957
rfemur 10.8295 -5.04789 7.53827
rtibia 2.94082
rfoot -16.171 -3.41212
rtoes 6.23455
lfemur 13.0237 0.664253 -20.1339
ltibia -2.78119
lfoot -11.7176 10.9267
ltoes -6.21553
10
root -28.3165 17.1123 1.24192 48.8703 84.1131 48.857
lowerback 5.22465 1.41698 -5.52685
upperback 0.73456 1.5831 -0.49981
thorax -2.30699 0.843184 2.46897
lowerneck -22.1453 2.4545 2.52722
upperneck 20.329 3.21995 -2.36275
head 10.2311 1.41555 -0.764989
rclavicle 7.74018e-015 -3.37934e-015
rhumerus -31.8074 9.03602 -91.9469
rradius 29.5786
rwrist 5.75347
rhand -10.8385 -30.6543
rfingers 7.12502
rthumb 15.176 -60.0778
lclavicle 7.74018e-015 -3.37934e-015
lhumerus -31.2343 -15.3824 96.4545
lradius 25.8051
lwrist -8.42752
lhand -8.17326 -26.3037
lfingers 7.12502
lthumb 17.7421 2.90687
rfemur 10.784 -4.98548 7.74669
rtibia 2.80235
rfoot -16.1247 -3.53391
rtoes 6.37802
lfemur 12.9687 0.596765 -19.9869
ltibia -2.77844
lfoot -11.7497 10.9884
ltoes -6.33305
11
root -28.3136 17.1121 1.23927 48.0309 84.2767 47.9404
lowerback 5.11117 1.36064 -5.40095
upperback 0.751753 1.52422 -0.398641
thorax -2.22023 0.81018 2.51029
lowerneck -22.1801 2.52758 2.49346
upperneck 20.3226 3.33606 -2.38019
head 10.2381 1.46359 -0.74764
rclavicle 1.29334e-014 2.5842e-015
rhumerus -31.8302 9.25551 -91.9608
rradius 29.5176
rwrist 5.77152
rhand -10.9424 -30.5445
rfingers 7.12502
rthumb 15.076 -59.9755
lclavicle 1.29334e-014 2.5842e-015
lhumerus -31.8345 -16.6294 97.3444
lradius 25.4659
lwrist -11.2804
lhand -13.9329 -26.8619
lfingers 7.12502
lthumb 12.1938 2.76268
rfemur 10.7335 -5.08685 7.95828
rtibia 2.87825
rfoot -16.1552 -3.50509
rtoes 6.01142
lfemur 12.9357 0.509498 -19.807
ltibia -2.8213
lfoot -11.7719 11.0915
ltoes -6.64622
12
root -28.3116 17.1126 1.23671 48.3938 84.2415 48.3239
lowerback 5.15344 1.36047 -5.50781
upperback 0.753237 1.51606 -0.368557
thorax -2.24523 0.807683 2.60093
lowerneck -22.1254 2.53585 2.30976
upperneck 20.2575 3.36334 -2.20203
head 10.1984 1.48408 -0.650666
rclavicle 4.8578e-015 8.74653e-015
rhumerus -31.9117 9.37714 -91.9572
rradius 29.4537
rwrist 5.77019
rhand -11.1361 -30.4106
rfingers 7.12502
rthumb 14.8894 -59.8555
lclavicle 4.8578e-015 8.74653e-015
lhumerus -31.8646 -16.6611 97.4813
lradius 25.482
lwrist -10.9675
lhand -13.9133 -26.9053
lfingers 7.12502
lthumb 12.2127 2.71811
rfemur 10.7787 -5.09522 7.87719
rtibia 2.85393
rfoot -16.1208 -3.47828
rtoes 6.00761
lfemur 12.9764 0.500813 -19.8868
ltibia -2.85076
lfoot -11.8249 11.0224
ltoes -6.22383
13
root -28.308 17.1131 1.2348 49.501 84.0839 49.4777
lowerback 5.22138 1.39048 -5.69182
upperback 0.747129 1.54045 -0.438007
thorax -2.29456 0.822958 2.62871
lowerneck -22.1845 2.51998 2.12661
upperneck 20.2838 3.3302 -1.91846
head 10.2087 1.48844 -0.524423
rclavicle 7.35503e-015 -1.74931e-014
rhumerus -32.038 9.51549 -92.0992
rradius 29.5284
rwrist 5.55494
rhand -11.3678 -30.577
rfingers 7.12502
rthumb 14.6662 -60.0383
lclavicle 7.35503e-015 -1.74931e-014
lhumerus -32.1855 -17.2852 97.8071
lradius 25.5527
lwrist -11.1681
lhand -15.8564 -26.3641
lfingers 7.12502
lthumb 10.3387 3.36179
rfemur 10.8508 -5.08577 7.61122
rtibia 2.82495
rfoot -16.1139 -3.46243
rtoes 6.04568
lfemur 13.028 0.515235 -20.1376
ltibia -2.86342
lfoot -11.8583 10.93
ltoes -5.35562
14
root -28.3059 17.1142 1.23497 49.7342 84.0835 49.7234
lowerback 5.22527 1.38691 -5.69564
upperback 0.770078 1.536 -0.467354
thorax -2.27185 0.819895 2.60108
lowerneck -22.3227 2.53462 2.10693
upperneck 20.3412 3.33859 -1.85362
head 10.253 1.49705 -0.495383
rclavicle -1.22004e-014 2.00773e-014
rhumerus -32.0011 9.42466 -92.1381
rradius 29.3894
rwrist 5.37453
rhand -11.578 -29.8062
rfingers 7.12502
rthumb 14.4636 -59.2821
lclavicle -1.22004e-014 2.00773e-014
lhumerus -32.3757 -17.7247 97.9759
lradius 25.7999
lwrist -10.862
lhand -15.1557 -26.1967
lfingers 7.12502
lthumb 11.0146 3.49431
rfemur 10.8848 -5.14355 7.55126
rtibia 2.81486
rfoot -16.0808 -3.39481
rtoes 6.40177
lfemur 13.0253 0.542182 -20.1577
ltibia -2.84963
lfoot -11.7662 10.9286
ltoes -5.66506
15
root -28.3064 17.1146 1.23588 48.3644 84.2679 48.3467
lowerback 5.25727 1.37282 -5.46362
upperback 0.774773 1.5287 -0.41367
thorax -2.27977 0.814257 2.52665
lowerneck -22.3169 2.54547 2.15998
upperneck 20.26 3.34846 -1.91758
head 10.2251 1.49773 -0.525694
rclavicle 6.48535e-015 6.36111e-015
rhumerus -32.0728 9.55724 -92.2859
rradius 29.3869
rwrist 5.36927
rhand -11.7022 -30.012
rfingers 7.12502
rthumb 14.344 -59.4965
lclavicle 6.48535e-015 6.36111e-015
lhumerus -32.4894 -17.9314 98.0714
lradius 25.8915
lwrist -10.8753
lhand -14.9135 -25.9914
lfingers 7.12502
lthumb 11.2482 3.687
rfemur 10.8843 -5.1405 7.84618
rtibia 2.7992
rfoot -16.0331 -3.45041
rtoes 6.30555
lfemur 13.0127 0.52893 -19.8702
ltibia -2.82261
lfoot -11.6572 10.9244
ltoes -7.52109
